HIERARCHY
ROOT Hips
{
	OFFSET -0.001795 -0.223333 0.028219
	CHANNELS 6 Xposition Yposition Zposition Zrotation Yrotation Xrotation 
	JOINT LeftUpLeg
	{
		OFFSET 0.069520 -0.091406 -0.006815
		CHANNELS 3 Zrotation Yrotation Xrotation
		JOINT LeftLeg
		{
			OFFSET 0.034277 -0.375199 -0.004496
			CHANNELS 3 Zrotation Yrotation Xrotation
			JOINT LeftFoot
			{
				OFFSET -0.013596 -0.397961 -0.043693
				CHANNELS 3 Zrotation Yrotation Xrotation
				JOINT LeftToe
				{
					OFFSET 0.026358 -0.055791 0.119288
					CHANNELS 3 Zrotation Yrotation Xrotation
					End Site
					{
						OFFSET 0.000000 0.000000 0.000000
					}
				}
			}
		}
	}
	JOINT RightUpLeg
	{
		OFFSET -0.067670 -0.090522 -0.004320
		CHANNELS 3 Zrotation Yrotation Xrotation
		JOINT RightLeg
		{
			OFFSET -0.038290 -0.382569 -0.008850
			CHANNELS 3 Zrotation Yrotation Xrotation
			JOINT RightFoot
			{
				OFFSET 0.015774 -0.398415 -0.042312
				CHANNELS 3 Zrotation Yrotation Xrotation
				JOINT RightToe
				{
					OFFSET -0.025372 -0.048144 0.123348
					CHANNELS 3 Zrotation Yrotation Xrotation
					End Site
					{
						OFFSET 0.000000 0.000000 0.000000
					}
				}
			}
		}
	}
	JOINT Spine
	{
		OFFSET -0.002533 0.108963 -0.026696
		CHANNELS 3 Zrotation Yrotation Xrotation
		JOINT Spine1
		{
			OFFSET 0.005487 0.135180 0.001092
			CHANNELS 3 Zrotation Yrotation Xrotation
			JOINT Spine2
			{
				OFFSET 0.001457 0.052922 0.025425
				CHANNELS 3 Zrotation Yrotation Xrotation
				JOINT Neck
				{
					OFFSET -0.002778 0.213870 -0.042857
					CHANNELS 3 Zrotation Yrotation Xrotation
					JOINT Head
					{
						OFFSET 0.005152 0.064970 0.051349
						CHANNELS 3 Zrotation Yrotation Xrotation
						End Site
						{
							OFFSET 0.000000 0.000000 0.000000
						}
					}
				}
				JOINT LeftShoulder
				{
					OFFSET 0.078845 0.121749 -0.034090
					CHANNELS 3 Zrotation Yrotation Xrotation
					JOINT LeftArm
					{
						OFFSET 0.090977 0.030469 -0.008868
						CHANNELS 3 Zrotation Yrotation Xrotation
						JOINT LeftForeArm
						{
							OFFSET 0.259612 -0.012772 -0.027456
							CHANNELS 3 Zrotation Yrotation Xrotation
							JOINT LeftHand
							{
								OFFSET 0.249234 0.008986 -0.001171
								CHANNELS 3 Zrotation Yrotation Xrotation
								End Site
								{
									OFFSET 0.000000 0.000000 0.000000
								}
							}
						}
					}
				}
				JOINT RightShoulder
				{
					OFFSET -0.081759 0.118833 -0.038615
					CHANNELS 3 Zrotation Yrotation Xrotation
					JOINT RightArm
					{
						OFFSET -0.096012 0.032551 -0.009143
						CHANNELS 3 Zrotation Yrotation Xrotation
						JOINT RightForeArm
						{
							OFFSET -0.253742 -0.013329 -0.021401
							CHANNELS 3 Zrotation Yrotation Xrotation
							JOINT RightHand
							{
								OFFSET -0.255298 0.007772 -0.005559
								CHANNELS 3 Zrotation Yrotation Xrotation
								End Site
								{
									OFFSET 0.000000 0.000000 0.000000
								}
							}
						}
					}
				}
			}
		}
	}
}
MOTION
Frames: 13
Frame Time: 0.050000
1.335084 0.968702 0.151006 -0.401345 -37.721823 0.566209 4.862762 1.725196 11.562130 -0.005129 0.127029 4.857722 11.576058 17.149951 32.945244 0.000000 0.000000 0.000000 4.280030 2.156915 -15.343171 2.401671 2.805688 24.630143 -7.756169 -20.547562 9.225874 0.000000 0.000000 0.000000 2.768391 -0.337024 10.988130 0.625378 -0.121464 0.393295 -6.825084 -1.563688 8.609225 9.092677 -6.593258 -13.119858 0.000000 0.000000 0.000000 10.723196 -0.534726 -1.150128 -66.907985 6.712035 -6.425064 -92.255095 -71.510268 87.486495 0.000000 0.000000 0.000000 -6.876587 -7.395500 0.059984 70.062761 -22.751998 -27.402467 100.787645 48.811195 51.319000 0.000000 0.000000 0.000000 
1.302917 0.961808 0.147729 -1.128103 -43.018625 1.465070 7.440056 1.837331 10.754713 -1.642662 1.034387 9.718521 11.676768 16.459089 34.506247 0.000000 0.000000 0.000000 5.699259 1.574282 -12.358092 2.745584 2.322161 21.297762 -5.007373 -15.981712 8.982545 0.000000 0.000000 0.000000 2.849732 -0.320379 9.749538 0.858681 0.141592 2.525321 -6.123053 -1.842795 6.870908 7.981951 -5.870417 -14.520936 0.000000 0.000000 0.000000 10.454913 0.269618 -1.536606 -67.564716 7.144517 -5.840484 -97.334393 -70.301711 92.368883 0.000000 0.000000 0.000000 -8.390692 -5.920282 1.159030 71.915868 -22.076556 -28.831403 99.830563 47.947630 48.626709 0.000000 0.000000 0.000000 
1.269885 0.945186 0.143454 -1.063741 -49.218798 0.697135 10.586986 2.119921 8.212254 -3.209354 4.373095 21.570367 11.127920 15.494564 31.954524 0.000000 0.000000 0.000000 7.574274 1.178755 -10.112782 2.369434 3.015181 22.851568 -5.633819 -13.935068 4.126992 0.000000 0.000000 0.000000 2.456372 -0.191282 10.779298 0.437873 0.116057 0.312986 -5.302460 -0.536185 9.157769 7.504352 -5.930701 -15.484923 0.000000 0.000000 0.000000 9.602801 0.743910 -1.899416 -67.774871 9.750453 -6.744993 -101.656430 -68.292025 96.509709 0.000000 0.000000 0.000000 -9.726810 -4.856422 2.058136 72.580504 -19.537715 -29.011711 98.372262 47.973381 46.694122 0.000000 0.000000 0.000000 
1.240001 0.929677 0.139315 -1.778655 -55.167748 -0.028658 10.429149 2.087285 3.485499 2.334393 8.335517 37.470485 4.755683 7.512198 25.801053 0.000000 0.000000 0.000000 9.637236 0.818544 -7.827810 1.981525 3.994752 25.200932 -5.991702 -10.916401 -0.174518 0.000000 0.000000 0.000000 3.912844 -0.106238 13.184346 -0.099408 0.116018 -1.565377 -5.430385 1.124713 10.659206 7.519166 -5.990145 -19.455973 0.000000 0.000000 0.000000 8.610678 1.235259 -2.105231 -69.448362 10.582449 -7.053127 -96.530453 -69.649279 93.313283 0.000000 0.000000 0.000000 -8.787978 -5.031063 1.752051 70.824456 -16.614804 -26.717796 97.667703 48.287367 45.381837 0.000000 0.000000 0.000000 
1.211755 0.925915 0.138236 -2.137319 -60.749721 -0.330793 8.224736 1.729735 -3.150627 10.929504 11.218262 51.263110 -1.679952 -0.997726 19.742420 0.000000 0.000000 0.000000 11.710920 0.286867 -4.316275 -1.217862 4.353441 23.328066 -5.352568 -7.706410 -1.438561 0.000000 0.000000 0.000000 4.043976 0.076886 14.118788 -1.279537 0.717344 -1.260395 -4.707162 2.740906 11.529464 7.348550 -6.036574 -20.757103 0.000000 0.000000 0.000000 8.304084 1.646504 -2.320473 -71.126638 9.991996 -6.274995 -89.911748 -69.225358 86.211770 0.000000 0.000000 0.000000 -7.849384 -3.768362 1.744508 72.345420 -11.718605 -24.779186 96.412718 49.948294 45.744944 0.000000 0.000000 0.000000 
1.181291 0.931026 0.140038 -3.061192 -66.665343 1.221556 5.434610 1.758246 -11.262306 18.959317 11.513427 58.906938 -5.346463 -6.800474 14.197352 0.000000 0.000000 0.000000 12.536954 -0.155991 -0.960668 -4.663394 3.803801 18.905763 -2.366710 -1.765521 -1.020201 0.000000 0.000000 0.000000 3.133267 0.306797 14.372434 -1.502317 0.636029 -2.682433 -2.917767 5.658788 12.628565 5.966930 -5.464985 -21.387765 0.000000 0.000000 0.000000 7.891141 2.477565 -2.646273 -72.052899 11.132913 -6.474338 -83.376451 -68.286284 78.791514 0.000000 0.000000 0.000000 -9.459747 -3.546108 2.464675 73.148058 -6.698165 -23.091150 97.906582 49.861454 46.403400 0.000000 0.000000 0.000000 
1.147123 0.942112 0.144163 -3.311306 -72.991301 2.564420 2.083414 2.616378 -19.831116 21.790310 11.192770 58.577531 -6.081658 -8.418158 12.106041 0.000000 0.000000 0.000000 12.026042 -0.452467 3.575989 -7.489783 2.465251 12.521016 1.956434 3.426157 1.620488 0.000000 0.000000 0.000000 2.046155 0.541470 14.381221 -2.661150 1.005589 -3.625655 -1.370835 8.196870 12.850993 5.970095 -5.612286 -22.152566 0.000000 0.000000 0.000000 6.998248 3.326368 -2.889874 -72.485894 12.769304 -6.937396 -77.188970 -66.539145 71.248790 0.000000 0.000000 0.000000 -9.160424 -2.756248 2.608089 73.763764 -3.697803 -22.021318 97.998948 48.879399 44.460335 0.000000 0.000000 0.000000 
1.108183 0.949431 0.150905 -4.555673 -78.698195 4.931013 0.446676 4.263070 -25.379096 16.334705 10.396757 48.287076 -4.101470 -6.175908 9.778917 0.000000 0.000000 0.000000 10.202011 -0.180097 8.046709 -6.840321 1.132205 7.193285 4.725540 4.948724 4.244652 0.000000 0.000000 0.000000 1.247979 0.539538 13.104005 -3.259929 1.238750 -4.133675 -0.864233 10.824668 13.550521 6.019558 -5.875430 -22.013126 0.000000 0.000000 0.000000 8.589471 3.323306 -3.394427 -73.888874 14.734473 -6.975344 -72.777868 -66.427872 66.898725 0.000000 0.000000 0.000000 -10.895090 -2.940495 3.362077 75.594462 -1.761208 -22.999189 100.044988 46.905913 43.613010 0.000000 0.000000 0.000000 
1.064535 0.951503 0.159798 -7.432152 -84.421549 8.240203 -0.673932 5.339990 -27.436811 8.911859 6.592605 31.426360 -1.166167 -2.511336 11.435094 0.000000 0.000000 0.000000 7.714640 0.853872 12.105977 -6.046447 0.615112 4.391096 7.295401 6.478699 6.327102 0.000000 0.000000 0.000000 0.174648 0.878917 13.619956 -4.709925 1.474691 -5.744186 0.524009 12.499949 13.338606 5.906488 -6.082081 -21.155044 0.000000 0.000000 0.000000 9.436065 3.522263 -3.846762 -74.815073 17.208446 -7.105264 -71.469638 -68.065552 67.131291 0.000000 0.000000 0.000000 -10.485298 -2.128937 3.529093 75.667264 0.352466 -22.385916 101.536953 47.438567 44.015602 0.000000 0.000000 0.000000 
1.015772 0.945619 0.170623 -16.371567 -88.390879 17.296867 -0.582934 6.174403 -27.813083 5.328253 2.937520 18.492236 -1.481609 -3.288493 15.677403 0.000000 0.000000 0.000000 5.189720 2.667319 16.436678 -4.021337 0.349689 2.568396 7.526864 4.498704 8.076949 0.000000 0.000000 0.000000 -0.535390 1.178517 14.142790 -5.348535 1.467029 -6.943240 0.597089 12.804170 13.516491 4.872742 -5.856450 -20.541928 0.000000 0.000000 0.000000 9.778653 3.408519 -4.144358 -76.462969 18.411832 -6.670251 -68.763562 -71.425655 68.170935 0.000000 0.000000 0.000000 -10.725157 -2.378238 3.706262 76.465139 1.325878 -23.210714 101.212387 44.065236 38.645137 0.000000 0.000000 0.000000 
0.962431 0.937774 0.183202 -177.251860 -86.875787 177.560103 -0.615783 6.585511 -27.193168 5.431107 2.342860 15.720433 -2.219882 -4.189645 18.466615 0.000000 0.000000 0.000000 3.432962 4.744132 19.583450 -4.181513 0.724146 6.246119 8.449495 5.119062 8.668153 0.000000 0.000000 0.000000 -2.019641 1.415999 13.611109 -6.203368 2.049086 -6.205136 1.487589 12.204849 13.054026 4.063803 -5.664816 -22.242561 0.000000 0.000000 0.000000 8.357211 3.427241 -3.987780 -75.604526 18.900124 -6.216566 -63.540782 -75.028658 67.346063 0.000000 0.000000 0.000000 -8.948197 0.494769 3.611690 76.169181 2.858811 -22.087146 101.103521 46.959011 39.568049 0.000000 0.000000 0.000000 
0.905516 0.932574 0.197642 177.188223 -83.782809 -177.645855 -1.101327 6.177044 -26.031068 5.828377 4.636406 20.886107 -2.087123 -3.706335 15.565710 0.000000 0.000000 0.000000 0.512713 6.588238 20.549881 -1.598618 1.444919 11.369424 7.037220 1.705459 10.157774 0.000000 0.000000 0.000000 -3.459397 1.721677 13.289618 -6.820808 2.702288 -5.021301 1.862548 10.588983 11.878636 2.251519 -4.973417 -21.190074 0.000000 0.000000 0.000000 7.057590 2.132918 -3.178317 -75.819755 17.577924 -5.133128 -45.517916 -77.634506 53.470443 0.000000 0.000000 0.000000 -7.383665 2.039762 3.230673 74.119940 2.857746 -20.770678 96.289709 47.985144 35.018727 0.000000 0.000000 0.000000 
0.847302 0.935010 0.213476 173.810079 -81.277417 -174.056879 -2.554829 5.156693 -24.610682 6.948186 7.279153 25.806697 -2.634464 -4.065616 13.091442 0.000000 0.000000 0.000000 -3.919156 7.353745 17.419436 2.305001 3.308167 19.805622 9.623370 -0.951101 16.600318 0.000000 0.000000 0.000000 -4.385938 1.585330 11.685230 -6.702910 2.717958 -5.055900 1.673121 9.641981 12.112006 2.041823 -5.195762 -22.122080 0.000000 0.000000 0.000000 6.246109 1.550736 -2.785391 -74.335096 15.576924 -3.433382 -41.700847 -79.621224 52.920590 0.000000 0.000000 0.000000 -7.807133 2.664754 3.585741 72.782143 2.772863 -21.082296 93.532203 47.202601 30.641231 0.000000 0.000000 0.000000 
